<svg id="visual" viewBox="0 0 900 450" width="900" height="450" xmlns="http://www.w3.org/2000/svg" xmlns:xlink="http://www.w3.org/1999/xlink" version="1.1"><rect x="0" y="0" width="900" height="450" fill="#001220"></rect><path d="M0 307L13.7 309.7C27.3 312.3 54.7 317.7 82 312.7C109.3 307.7 136.7 292.3 163.8 286.5C191 280.7 218 284.3 245.2 289.8C272.3 295.3 299.7 302.7 327 309.3C354.3 316 381.7 322 409 326.7C436.3 331.3 463.7 334.7 491 326.7C518.3 318.7 545.7 299.3 573 293C600.3 286.7 627.7 293.3 654.8 297.8C682 302.3 709 304.7 736.2 308.5C763.3 312.3 790.7 317.7 818 318.5C845.3 319.3 872.7 315.7 886.3 313.8L900 312L900 451L886.3 451C872.7 451 845.3 451 818 451C790.7 451 763.3 451 736.2 451C709 451 682 451 654.8 451C627.7 451 600.3 451 573 451C545.7 451 518.3 451 491 451C463.7 451 436.3 451 409 451C381.7 451 354.3 451 327 451C299.7 451 272.3 451 245.2 451C218 451 191 451 163.8 451C136.7 451 109.3 451 82 451C54.7 451 27.3 451 13.7 451L0 451Z" fill="#d9a966"></path><path d="M0 305L13.7 310.7C27.3 316.3 54.7 327.7 82 329.5C109.3 331.3 136.7 323.7 163.8 315.2C191 306.7 218 297.3 245.2 296.7C272.3 296 299.7 304 327 314.2C354.3 324.3 381.7 336.7 409 335C436.3 333.3 463.7 317.7 491 313.5C518.3 309.3 545.7 316.7 573 321.2C600.3 325.7 627.7 327.3 654.8 323.5C682 319.7 709 310.3 736.2 314.7C763.3 319 790.7 337 818 340C845.3 343 872.7 331 886.3 325L900 319L900 451L886.3 451C872.7 451 845.3 451 818 451C790.7 451 763.3 451 736.2 451C709 451 682 451 654.8 451C627.7 451 600.3 451 573 451C545.7 451 518.3 451 491 451C463.7 451 436.3 451 409 451C381.7 451 354.3 451 327 451C299.7 451 272.3 451 245.2 451C218 451 191 451 163.8 451C136.7 451 109.3 451 82 451C54.7 451 27.3 451 13.7 451L0 451Z" fill="#d88e6b"></path><path d="M0 352L13.7 348.2C27.3 344.3 54.7 336.7 82 339C109.3 341.3 136.7 353.7 163.8 356.3C191 359 218 352 245.2 350.8C272.3 349.7 299.7 354.3 327 356.5C354.3 358.7 381.7 358.3 409 351.8C436.3 345.3 463.7 332.7 491 334.8C518.3 337 545.7 354 573 362.3C600.3 370.7 627.7 370.3 654.8 367.5C682 364.7 709 359.3 736.2 349.5C763.3 339.7 790.7 325.3 818 322.3C845.3 319.3 872.7 327.7 886.3 331.8L900 336L900 451L886.3 451C872.7 451 845.3 451 818 451C790.7 451 763.3 451 736.2 451C709 451 682 451 654.8 451C627.7 451 600.3 451 573 451C545.7 451 518.3 451 491 451C463.7 451 436.3 451 409 451C381.7 451 354.3 451 327 451C299.7 451 272.3 451 245.2 451C218 451 191 451 163.8 451C136.7 451 109.3 451 82 451C54.7 451 27.3 451 13.7 451L0 451Z" fill="#ca7875"></path><path d="M0 367L13.7 369.8C27.3 372.7 54.7 378.3 82 380.3C109.3 382.3 136.7 380.7 163.8 377.3C191 374 218 369 245.2 366C272.3 363 299.7 362 327 360.7C354.3 359.3 381.7 357.7 409 359C436.3 360.3 463.7 364.7 491 363.8C518.3 363 545.7 357 573 351.5C600.3 346 627.7 341 654.8 344.8C682 348.7 709 361.3 736.2 362.2C763.3 363 790.7 352 818 354.3C845.3 356.7 872.7 372.3 886.3 380.2L900 388L900 451L886.3 451C872.7 451 845.3 451 818 451C790.7 451 763.3 451 736.2 451C709 451 682 451 654.8 451C627.7 451 600.3 451 573 451C545.7 451 518.3 451 491 451C463.7 451 436.3 451 409 451C381.7 451 354.3 451 327 451C299.7 451 272.3 451 245.2 451C218 451 191 451 163.8 451C136.7 451 109.3 451 82 451C54.7 451 27.3 451 13.7 451L0 451Z" fill="#b1687e"></path><path d="M0 379L13.7 381.3C27.3 383.7 54.7 388.3 82 389.8C109.3 391.3 136.7 389.7 163.8 387.2C191 384.7 218 381.3 245.2 380.7C272.3 380 299.7 382 327 381C354.3 380 381.7 376 409 372.5C436.3 369 463.7 366 491 364C518.3 362 545.7 361 573 366.8C600.3 372.7 627.7 385.3 654.8 387.2C682 389 709 380 736.2 378.2C763.3 376.3 790.7 381.7 818 385.2C845.3 388.7 872.7 390.3 886.3 391.2L900 392L900 451L886.3 451C872.7 451 845.3 451 818 451C790.7 451 763.3 451 736.2 451C709 451 682 451 654.8 451C627.7 451 600.3 451 573 451C545.7 451 518.3 451 491 451C463.7 451 436.3 451 409 451C381.7 451 354.3 451 327 451C299.7 451 272.3 451 245.2 451C218 451 191 451 163.8 451C136.7 451 109.3 451 82 451C54.7 451 27.3 451 13.7 451L0 451Z" fill="#8f5d82"></path><path d="M0 389L13.7 393.3C27.3 397.7 54.7 406.3 82 410.3C109.3 414.3 136.7 413.7 163.8 412.5C191 411.3 218 409.7 245.2 404.8C272.3 400 299.7 392 327 389C354.3 386 381.7 388 409 390.3C436.3 392.7 463.7 395.3 491 396.3C518.3 397.3 545.7 396.7 573 396.7C600.3 396.7 627.7 397.3 654.8 397.7C682 398 709 398 736.2 397.8C763.3 397.7 790.7 397.3 818 397.3C845.3 397.3 872.7 397.7 886.3 397.8L900 398L900 451L886.3 451C872.7 451 845.3 451 818 451C790.7 451 763.3 451 736.2 451C709 451 682 451 654.8 451C627.7 451 600.3 451 573 451C545.7 451 518.3 451 491 451C463.7 451 436.3 451 409 451C381.7 451 354.3 451 327 451C299.7 451 272.3 451 245.2 451C218 451 191 451 163.8 451C136.7 451 109.3 451 82 451C54.7 451 27.3 451 13.7 451L0 451Z" fill="#68557d"></path><path d="M0 425L13.7 423.8C27.3 422.7 54.7 420.3 82 421.2C109.3 422 136.7 426 163.8 428C191 430 218 430 245.2 428.3C272.3 426.7 299.7 423.3 327 421.2C354.3 419 381.7 418 409 418.3C436.3 418.7 463.7 420.3 491 423.2C518.3 426 545.7 430 573 427.8C600.3 425.7 627.7 417.3 654.8 414.2C682 411 709 413 736.2 415C763.3 417 790.7 419 818 421.5C845.3 424 872.7 427 886.3 428.5L900 430L900 451L886.3 451C872.7 451 845.3 451 818 451C790.7 451 763.3 451 736.2 451C709 451 682 451 654.8 451C627.7 451 600.3 451 573 451C545.7 451 518.3 451 491 451C463.7 451 436.3 451 409 451C381.7 451 354.3 451 327 451C299.7 451 272.3 451 245.2 451C218 451 191 451 163.8 451C136.7 451 109.3 451 82 451C54.7 451 27.3 451 13.7 451L0 451Z" fill="#424c6f"></path></svg>