<svg id="visual" viewBox="0 0 900 300" width="900" height="300" xmlns="http://www.w3.org/2000/svg" xmlns:xlink="http://www.w3.org/1999/xlink" version="1.1"><rect x="0" y="0" width="900" height="300" fill="#FFFFFF"></rect><path d="M0 94L13.7 92.2C27.3 90.3 54.7 86.7 82 89.8C109.3 93 136.7 103 163.8 106.8C191 110.7 218 108.3 245.2 104.8C272.3 101.3 299.7 96.7 327 92.3C354.3 88 381.7 84 409 80.8C436.3 77.7 463.7 75.3 491 80.7C518.3 86 545.7 99 573 103.3C600.3 107.7 627.7 103.3 654.8 100.2C682 97 709 95 736.2 92.3C763.3 89.7 790.7 86.3 818 86C845.3 85.7 872.7 88.3 886.3 89.7L900 91L900 0L886.3 0C872.7 0 845.3 0 818 0C790.7 0 763.3 0 736.2 0C709 0 682 0 654.8 0C627.7 0 600.3 0 573 0C545.7 0 518.3 0 491 0C463.7 0 436.3 0 409 0C381.7 0 354.3 0 327 0C299.7 0 272.3 0 245.2 0C218 0 191 0 163.8 0C136.7 0 109.3 0 82 0C54.7 0 27.3 0 13.7 0L0 0Z" fill="#d9a966"></path><path d="M0 95L13.7 91.2C27.3 87.3 54.7 79.7 82 78.5C109.3 77.3 136.7 82.7 163.8 88.3C191 94 218 100 245.2 100.5C272.3 101 299.7 96 327 89.3C354.3 82.7 381.7 74.3 409 75.3C436.3 76.3 463.7 86.7 491 89.3C518.3 92 545.7 87 573 84C600.3 81 627.7 80 654.8 82.7C682 85.3 709 91.7 736.2 88.8C763.3 86 790.7 74 818 72C845.3 70 872.7 78 886.3 82L900 86L900 0L886.3 0C872.7 0 845.3 0 818 0C790.7 0 763.3 0 736.2 0C709 0 682 0 654.8 0C627.7 0 600.3 0 573 0C545.7 0 518.3 0 491 0C463.7 0 436.3 0 409 0C381.7 0 354.3 0 327 0C299.7 0 272.3 0 245.2 0C218 0 191 0 163.8 0C136.7 0 109.3 0 82 0C54.7 0 27.3 0 13.7 0L0 0Z" fill="#d88e6b"></path><path d="M0 64L13.7 66.5C27.3 69 54.7 74 82 72.3C109.3 70.7 136.7 62.3 163.8 60.7C191 59 218 64 245.2 64.8C272.3 65.7 299.7 62.3 327 60.8C354.3 59.3 381.7 59.7 409 64C436.3 68.3 463.7 76.7 491 75.2C518.3 73.7 545.7 62.3 573 56.7C600.3 51 627.7 51 654.8 52.8C682 54.7 709 58.3 736.2 65C763.3 71.7 790.7 81.3 818 83.3C845.3 85.3 872.7 79.7 886.3 76.8L900 74L900 0L886.3 0C872.7 0 845.3 0 818 0C790.7 0 763.3 0 736.2 0C709 0 682 0 654.8 0C627.7 0 600.3 0 573 0C545.7 0 518.3 0 491 0C463.7 0 436.3 0 409 0C381.7 0 354.3 0 327 0C299.7 0 272.3 0 245.2 0C218 0 191 0 163.8 0C136.7 0 109.3 0 82 0C54.7 0 27.3 0 13.7 0L0 0Z" fill="#ca7875"></path><path d="M0 54L13.7 52C27.3 50 54.7 46 82 44.5C109.3 43 136.7 44 163.8 46.2C191 48.3 218 51.7 245.2 53.8C272.3 56 299.7 57 327 58C354.3 59 381.7 60 409 59C436.3 58 463.7 55 491 55.5C518.3 56 545.7 60 573 63.7C600.3 67.3 627.7 70.7 654.8 68.2C682 65.7 709 57.3 736.2 56.8C763.3 56.3 790.7 63.7 818 62C845.3 60.3 872.7 49.7 886.3 44.3L900 39L900 0L886.3 0C872.7 0 845.3 0 818 0C790.7 0 763.3 0 736.2 0C709 0 682 0 654.8 0C627.7 0 600.3 0 573 0C545.7 0 518.3 0 491 0C463.7 0 436.3 0 409 0C381.7 0 354.3 0 327 0C299.7 0 272.3 0 245.2 0C218 0 191 0 163.8 0C136.7 0 109.3 0 82 0C54.7 0 27.3 0 13.7 0L0 0Z" fill="#b1687e"></path><path d="M0 46L13.7 44.3C27.3 42.7 54.7 39.3 82 38.3C109.3 37.3 136.7 38.7 163.8 40.3C191 42 218 44 245.2 44.3C272.3 44.7 299.7 43.3 327 44.2C354.3 45 381.7 48 409 50.3C436.3 52.7 463.7 54.3 491 55.5C518.3 56.7 545.7 57.3 573 53.5C600.3 49.7 627.7 41.3 654.8 40.2C682 39 709 45 736.2 46.2C763.3 47.3 790.7 43.7 818 41.3C845.3 39 872.7 38 886.3 37.5L900 37L900 0L886.3 0C872.7 0 845.3 0 818 0C790.7 0 763.3 0 736.2 0C709 0 682 0 654.8 0C627.7 0 600.3 0 573 0C545.7 0 518.3 0 491 0C463.7 0 436.3 0 409 0C381.7 0 354.3 0 327 0C299.7 0 272.3 0 245.2 0C218 0 191 0 163.8 0C136.7 0 109.3 0 82 0C54.7 0 27.3 0 13.7 0L0 0Z" fill="#8f5d82"></path><path d="M0 39L13.7 36C27.3 33 54.7 27 82 24.3C109.3 21.7 136.7 22.3 163.8 23.3C191 24.3 218 25.7 245.2 29C272.3 32.3 299.7 37.7 327 39.5C354.3 41.3 381.7 39.7 409 38C436.3 36.3 463.7 34.7 491 34C518.3 33.3 545.7 33.7 573 33.7C600.3 33.7 627.7 33.3 654.8 33.2C682 33 709 33 736.2 33.2C763.3 33.3 790.7 33.7 818 33.7C845.3 33.7 872.7 33.3 886.3 33.2L900 33L900 0L886.3 0C872.7 0 845.3 0 818 0C790.7 0 763.3 0 736.2 0C709 0 682 0 654.8 0C627.7 0 600.3 0 573 0C545.7 0 518.3 0 491 0C463.7 0 436.3 0 409 0C381.7 0 354.3 0 327 0C299.7 0 272.3 0 245.2 0C218 0 191 0 163.8 0C136.7 0 109.3 0 82 0C54.7 0 27.3 0 13.7 0L0 0Z" fill="#68557d"></path><path d="M0 15L13.7 15.7C27.3 16.3 54.7 17.7 82 17C109.3 16.3 136.7 13.7 163.8 12.3C191 11 218 11 245.2 12.2C272.3 13.3 299.7 15.7 327 17.3C354.3 19 381.7 20 409 19.8C436.3 19.7 463.7 18.3 491 16.3C518.3 14.3 545.7 11.7 573 13.2C600.3 14.7 627.7 20.3 654.8 22.5C682 24.7 709 23.3 736.2 22C763.3 20.7 790.7 19.3 818 17.7C845.3 16 872.7 14 886.3 13L900 12L900 0L886.3 0C872.7 0 845.3 0 818 0C790.7 0 763.3 0 736.2 0C709 0 682 0 654.8 0C627.7 0 600.3 0 573 0C545.7 0 518.3 0 491 0C463.7 0 436.3 0 409 0C381.7 0 354.3 0 327 0C299.7 0 272.3 0 245.2 0C218 0 191 0 163.8 0C136.7 0 109.3 0 82 0C54.7 0 27.3 0 13.7 0L0 0Z" fill="#424c6f"></path></svg>